<svg width="800" height="600" xmlns="http://www.w3.org/2000/svg">
 <!-- Created with Method Draw - http://github.com/duopixel/Method-Draw/ -->
 <g>
  <title>Layer 1</title>
 </g>
 <g>
  <title>background</title>
  <ellipse ry="19.231" rx="19.231" id="svg_78" cy="195.54024" cx="87.35273" stroke-opacity="null" stroke-width="null" stroke="null" fill="#d7f3f7"/>
  <ellipse ry="19.231" rx="19.231" id="svg_56" cy="416.05619" cx="87.35273" stroke-opacity="null" stroke-width="null" stroke="null" fill="#d7f3f7"/>
  <ellipse ry="19.231" rx="19.231" id="svg_79" cy="310.23515" cx="89.57495" stroke-opacity="null" stroke-width="null" stroke="null" fill="#d7f3f7"/>
  <ellipse ry="19.231" rx="19.231" id="svg_67" cy="528.74908" cx="89.57495" stroke-opacity="null" stroke-width="null" stroke="null" fill="#d7f3f7"/>
  <ellipse ry="19.231" rx="19.231" id="svg_80" cy="310.23515" cx="89.57495" stroke-opacity="null" stroke-width="null" stroke="null" fill="#d7f3f7"/>
  <ellipse ry="19.231" rx="19.231" id="svg_50" cy="528.74908" cx="89.57495" stroke-opacity="null" stroke-width="null" stroke="null" fill="#d7f3f7"/>
  <ellipse ry="19.231" rx="19.231" id="svg_81" cy="195.54024" cx="473.8552" stroke-opacity="null" stroke-width="null" stroke="null" fill="#d7f3f7"/>
  <ellipse ry="19.231" rx="19.231" id="svg_57" cy="416.05619" cx="473.8552" stroke-opacity="null" stroke-width="null" stroke="null" fill="#d7f3f7"/>
  <ellipse ry="19.231" rx="19.231" id="svg_82" cy="310.23515" cx="476.07743" stroke-opacity="null" stroke-width="null" stroke="null" fill="#d7f3f7"/>
  <ellipse ry="19.231" rx="19.231" id="svg_68" cy="528.74908" cx="476.07743" stroke-opacity="null" stroke-width="null" stroke="null" fill="#d7f3f7"/>
  <ellipse ry="19.231" rx="19.231" id="svg_83" cy="310.23515" cx="476.07743" stroke-opacity="null" stroke-width="null" stroke="null" fill="#d7f3f7"/>
  <ellipse ry="19.231" rx="19.231" id="svg_47" cy="528.74908" cx="476.07743" stroke-opacity="null" stroke-width="null" stroke="null" fill="#d7f3f7"/>
  <ellipse ry="19.231" rx="19.231" id="svg_84" cy="195.54024" cx="277.60503" stroke-opacity="null" stroke-width="null" stroke="null" fill="#d7f3f7"/>
  <ellipse ry="19.231" rx="19.231" id="svg_58" cy="416.05619" cx="277.60503" stroke-opacity="null" stroke-width="null" stroke="null" fill="#d7f3f7"/>
  <ellipse ry="19.231" rx="19.231" id="svg_85" cy="310.23515" cx="279.82725" stroke-opacity="null" stroke-width="null" stroke="null" fill="#d7f3f7"/>
  <ellipse ry="19.231" rx="19.231" id="svg_69" cy="528.74908" cx="279.82725" stroke-opacity="null" stroke-width="null" stroke="null" fill="#d7f3f7"/>
  <ellipse ry="19.231" rx="19.231" id="svg_86" cy="310.23515" cx="279.82725" stroke-opacity="null" stroke-width="null" stroke="null" fill="#d7f3f7"/>
  <ellipse ry="19.231" rx="19.231" id="svg_51" cy="528.74908" cx="279.82725" stroke-opacity="null" stroke-width="null" stroke="null" fill="#d7f3f7"/>
  <ellipse ry="19.231" rx="19.231" id="svg_87" cy="195.54024" cx="667.78084" stroke-opacity="null" stroke-width="null" stroke="null" fill="#d7f3f7"/>
  <ellipse ry="19.231" rx="19.231" id="svg_59" cy="416.05619" cx="667.78084" stroke-opacity="null" stroke-width="null" stroke="null" fill="#d7f3f7"/>
  <ellipse ry="19.231" rx="19.231" id="svg_88" cy="310.23515" cx="670.00306" stroke-opacity="null" stroke-width="null" stroke="null" fill="#d7f3f7"/>
  <ellipse ry="19.231" rx="19.231" id="svg_70" cy="528.74908" cx="670.00306" stroke-opacity="null" stroke-width="null" stroke="null" fill="#d7f3f7"/>
  <ellipse ry="19.231" rx="19.231" id="svg_89" cy="310.23515" cx="670.00306" stroke-opacity="null" stroke-width="null" stroke="null" fill="#d7f3f7"/>
  <ellipse ry="19.231" rx="19.231" id="svg_45" cy="528.74908" cx="670.00306" stroke-opacity="null" stroke-width="null" stroke="null" fill="#d7f3f7"/>
  <ellipse ry="19.231" rx="19.231" id="svg_90" cy="195.54024" cx="87.35273" stroke-opacity="null" stroke-width="null" stroke="null" fill="#d7f3f7"/>
  <ellipse ry="19.231" rx="19.231" id="svg_60" cy="416.05619" cx="87.35273" stroke-opacity="null" stroke-width="null" stroke="null" fill="#d7f3f7"/>
  <ellipse ry="19.231" rx="19.231" id="svg_91" cy="310.23515" cx="89.57495" stroke-opacity="null" stroke-width="null" stroke="null" fill="#d7f3f7"/>
  <ellipse ry="19.231" rx="19.231" id="svg_71" cy="528.74908" cx="89.57495" stroke-opacity="null" stroke-width="null" stroke="null" fill="#d7f3f7"/>
  <ellipse ry="19.231" rx="19.231" id="svg_92" cy="310.23515" cx="89.57495" stroke-opacity="null" stroke-width="null" stroke="null" fill="#d7f3f7"/>
  <ellipse ry="19.231" rx="19.231" id="svg_52" cy="528.74908" cx="89.57495" stroke-opacity="null" stroke-width="null" stroke="null" fill="#d7f3f7"/>
  <ellipse ry="19.231" rx="19.231" id="svg_93" cy="195.54024" cx="277.60503" stroke-opacity="null" stroke-width="null" stroke="null" fill="#d7f3f7"/>
  <ellipse ry="19.231" rx="19.231" id="svg_61" cy="416.05619" cx="277.60503" stroke-opacity="null" stroke-width="null" stroke="null" fill="#d7f3f7"/>
  <ellipse ry="19.231" rx="19.231" id="svg_94" cy="310.23515" cx="279.82725" stroke-opacity="null" stroke-width="null" stroke="null" fill="#d7f3f7"/>
  <ellipse ry="19.231" rx="19.231" id="svg_72" cy="528.74908" cx="279.82725" stroke-opacity="null" stroke-width="null" stroke="null" fill="#d7f3f7"/>
  <ellipse ry="19.231" rx="19.231" id="svg_95" cy="310.23515" cx="279.82725" stroke-opacity="null" stroke-width="null" stroke="null" fill="#d7f3f7"/>
  <ellipse ry="19.231" rx="19.231" id="svg_53" cy="528.74908" cx="279.82725" stroke-opacity="null" stroke-width="null" stroke="null" fill="#d7f3f7"/>
  <ellipse ry="19.231" rx="19.231" id="svg_96" cy="195.54024" cx="667.78084" stroke-opacity="null" stroke-width="null" stroke="null" fill="#d7f3f7"/>
  <ellipse ry="19.231" rx="19.231" id="svg_62" cy="416.05619" cx="667.78084" stroke-opacity="null" stroke-width="null" stroke="null" fill="#d7f3f7"/>
  <ellipse ry="19.231" rx="19.231" id="svg_97" cy="310.23515" cx="670.00306" stroke-opacity="null" stroke-width="null" stroke="null" fill="#d7f3f7"/>
  <ellipse ry="19.231" rx="19.231" id="svg_73" cy="528.74908" cx="670.00306" stroke-opacity="null" stroke-width="null" stroke="null" fill="#d7f3f7"/>
  <ellipse ry="19.231" rx="19.231" id="svg_98" cy="310.23515" cx="670.00306" stroke-opacity="null" stroke-width="null" stroke="null" fill="#d7f3f7"/>
  <ellipse ry="19.231" rx="19.231" id="svg_46" cy="528.74908" cx="670.00306" stroke-opacity="null" stroke-width="null" stroke="null" fill="#d7f3f7"/>
  <ellipse ry="19.231" rx="19.231" id="svg_99" cy="195.54024" cx="186.70949" stroke-opacity="null" stroke-width="null" stroke="null" fill="#d7f3f7"/>
  <ellipse ry="19.231" rx="19.231" id="svg_63" cy="416.05619" cx="186.70949" stroke-opacity="null" stroke-width="null" stroke="null" fill="#d7f3f7"/>
  <ellipse ry="19.231" rx="19.231" id="svg_100" cy="310.23515" cx="188.93171" stroke-opacity="null" stroke-width="null" stroke="null" fill="#d7f3f7"/>
  <ellipse ry="19.231" rx="19.231" id="svg_74" cy="528.74908" cx="188.93171" stroke-opacity="null" stroke-width="null" stroke="null" fill="#d7f3f7"/>
  <ellipse ry="19.231" rx="19.231" id="svg_101" cy="310.23515" cx="188.93171" stroke-opacity="null" stroke-width="null" stroke="null" fill="#d7f3f7"/>
  <ellipse ry="19.231" rx="19.231" id="svg_54" cy="528.74908" cx="188.93171" stroke-opacity="null" stroke-width="null" stroke="null" fill="#d7f3f7"/>
  <ellipse ry="19.231" rx="19.231" id="svg_102" cy="195.54024" cx="569.87328" stroke-opacity="null" stroke-width="null" stroke="null" fill="#d7f3f7"/>
  <ellipse ry="19.231" rx="19.231" id="svg_64" cy="416.05619" cx="569.87328" stroke-opacity="null" stroke-width="null" stroke="null" fill="#d7f3f7"/>
  <ellipse ry="19.231" rx="19.231" id="svg_103" cy="310.23515" cx="572.0955" stroke-opacity="null" stroke-width="null" stroke="null" fill="#d7f3f7"/>
  <ellipse ry="19.231" rx="19.231" id="svg_75" cy="528.74908" cx="572.0955" stroke-opacity="null" stroke-width="null" stroke="null" fill="#d7f3f7"/>
  <ellipse ry="19.231" rx="19.231" id="svg_104" cy="310.23515" cx="572.0955" stroke-opacity="null" stroke-width="null" stroke="null" fill="#d7f3f7"/>
  <ellipse ry="19.231" rx="19.231" id="svg_49" cy="528.74908" cx="572.0955" stroke-opacity="null" stroke-width="null" stroke="null" fill="#d7f3f7"/>
  <ellipse ry="19.231" rx="19.231" id="svg_105" cy="195.54024" cx="374.62434" stroke-opacity="null" stroke-width="null" stroke="null" fill="#d7f3f7"/>
  <ellipse ry="19.231" rx="19.231" id="svg_65" cy="416.05619" cx="374.62434" stroke-opacity="null" stroke-width="null" stroke="null" fill="#d7f3f7"/>
  <ellipse ry="19.231" rx="19.231" id="svg_106" cy="310.23515" cx="376.84656" stroke-opacity="null" stroke-width="null" stroke="null" fill="#d7f3f7"/>
  <ellipse ry="19.231" rx="19.231" id="svg_76" cy="528.74908" cx="376.84656" stroke-opacity="null" stroke-width="null" stroke="null" fill="#d7f3f7"/>
  <ellipse ry="19.231" rx="19.231" id="svg_107" cy="310.23515" cx="376.84656" stroke-opacity="null" stroke-width="null" stroke="null" fill="#d7f3f7"/>
  <ellipse ry="19.231" rx="19.231" id="svg_55" cy="528.74908" cx="376.84656" stroke-opacity="null" stroke-width="null" stroke="null" fill="#d7f3f7"/>
 </g>
</svg>